<mxfile host="app.diagrams.net" agent="Mozilla/5.0 (Windows NT 10.0; Win64; x64) AppleWebKit/537.36 (KHTML, like Gecko) Chrome/141.0.0.0 Safari/537.36" version="28.2.8">
  <diagram name="Page-1" id="qpUx2VrfvWBYGGBiBJJE">
    <mxGraphModel dx="1796" dy="563" grid="1" gridSize="10" guides="1" tooltips="1" connect="1" arrows="1" fold="1" page="1" pageScale="1" pageWidth="850" pageHeight="1100" math="0" shadow="0">
      <root>
        <mxCell id="0" />
        <mxCell id="1" parent="0" />
        <mxCell id="MrNx-WvCg45tO7X31yC5-1" value="AWS Account" style="points=[[0,0],[0.25,0],[0.5,0],[0.75,0],[1,0],[1,0.25],[1,0.5],[1,0.75],[1,1],[0.75,1],[0.5,1],[0.25,1],[0,1],[0,0.75],[0,0.5],[0,0.25]];outlineConnect=0;gradientColor=none;html=1;whiteSpace=wrap;fontSize=12;fontStyle=0;container=1;pointerEvents=0;collapsible=0;recursiveResize=0;shape=mxgraph.aws4.group;grIcon=mxgraph.aws4.group_account;strokeColor=#CD2264;fillColor=none;verticalAlign=top;align=left;spacingLeft=30;fontColor=#CD2264;dashed=0;" vertex="1" parent="1">
          <mxGeometry x="120" y="40" width="720" height="520" as="geometry" />
        </mxCell>
        <mxCell id="MrNx-WvCg45tO7X31yC5-2" value="&lt;b&gt;Public subnet&lt;/b&gt;" style="points=[[0,0],[0.25,0],[0.5,0],[0.75,0],[1,0],[1,0.25],[1,0.5],[1,0.75],[1,1],[0.75,1],[0.5,1],[0.25,1],[0,1],[0,0.75],[0,0.5],[0,0.25]];outlineConnect=0;gradientColor=#97d077;html=1;whiteSpace=wrap;fontSize=12;fontStyle=0;container=1;pointerEvents=0;collapsible=0;recursiveResize=0;shape=mxgraph.aws4.group;grIcon=mxgraph.aws4.group_security_group;grStroke=0;strokeColor=#82b366;fillColor=#d5e8d4;verticalAlign=top;align=left;spacingLeft=30;dashed=0;" vertex="1" parent="MrNx-WvCg45tO7X31yC5-1">
          <mxGeometry x="80" y="40" width="160" height="440" as="geometry" />
        </mxCell>
        <mxCell id="MrNx-WvCg45tO7X31yC5-11" value="" style="rounded=0;whiteSpace=wrap;html=1;fillColor=#e6d0de;gradientColor=#d5739d;strokeColor=#996185;" vertex="1" parent="MrNx-WvCg45tO7X31yC5-2">
          <mxGeometry x="20" y="120" width="120" height="180" as="geometry" />
        </mxCell>
        <mxCell id="MrNx-WvCg45tO7X31yC5-12" value="" style="sketch=0;points=[[0,0,0],[0.25,0,0],[0.5,0,0],[0.75,0,0],[1,0,0],[0,1,0],[0.25,1,0],[0.5,1,0],[0.75,1,0],[1,1,0],[0,0.25,0],[0,0.5,0],[0,0.75,0],[1,0.25,0],[1,0.5,0],[1,0.75,0]];outlineConnect=0;fontColor=#232F3E;fillColor=#ED7100;strokeColor=#ffffff;dashed=0;verticalLabelPosition=bottom;verticalAlign=top;align=center;html=1;fontSize=12;fontStyle=0;aspect=fixed;shape=mxgraph.aws4.resourceIcon;resIcon=mxgraph.aws4.ec2;" vertex="1" parent="MrNx-WvCg45tO7X31yC5-2">
          <mxGeometry x="55" y="150" width="50" height="50" as="geometry" />
        </mxCell>
        <mxCell id="MrNx-WvCg45tO7X31yC5-13" value="" style="sketch=0;points=[[0,0,0],[0.25,0,0],[0.5,0,0],[0.75,0,0],[1,0,0],[0,1,0],[0.25,1,0],[0.5,1,0],[0.75,1,0],[1,1,0],[0,0.25,0],[0,0.5,0],[0,0.75,0],[1,0.25,0],[1,0.5,0],[1,0.75,0]];outlineConnect=0;fontColor=#232F3E;fillColor=#ED7100;strokeColor=#ffffff;dashed=0;verticalLabelPosition=bottom;verticalAlign=top;align=center;html=1;fontSize=12;fontStyle=0;aspect=fixed;shape=mxgraph.aws4.resourceIcon;resIcon=mxgraph.aws4.ec2;" vertex="1" parent="MrNx-WvCg45tO7X31yC5-2">
          <mxGeometry x="55" y="220" width="50" height="50" as="geometry" />
        </mxCell>
        <mxCell id="MrNx-WvCg45tO7X31yC5-14" value="&lt;b&gt;frontend-tg&lt;/b&gt;" style="text;html=1;whiteSpace=wrap;strokeColor=none;fillColor=none;align=center;verticalAlign=middle;rounded=0;" vertex="1" parent="MrNx-WvCg45tO7X31yC5-2">
          <mxGeometry x="40" y="120" width="80" height="30" as="geometry" />
        </mxCell>
        <mxCell id="MrNx-WvCg45tO7X31yC5-15" value="" style="sketch=0;aspect=fixed;pointerEvents=1;shadow=0;dashed=0;html=1;strokeColor=none;labelPosition=center;verticalLabelPosition=bottom;verticalAlign=top;align=center;fillColor=#00188D;shape=mxgraph.mscae.enterprise.lock_unlocked" vertex="1" parent="MrNx-WvCg45tO7X31yC5-2">
          <mxGeometry x="97.80000000000001" y="150" width="22.2" height="30" as="geometry" />
        </mxCell>
        <mxCell id="MrNx-WvCg45tO7X31yC5-16" value="" style="sketch=0;aspect=fixed;pointerEvents=1;shadow=0;dashed=0;html=1;strokeColor=none;labelPosition=center;verticalLabelPosition=bottom;verticalAlign=top;align=center;fillColor=#00188D;shape=mxgraph.mscae.enterprise.lock_unlocked" vertex="1" parent="MrNx-WvCg45tO7X31yC5-2">
          <mxGeometry x="97.80000000000001" y="230" width="22.2" height="30" as="geometry" />
        </mxCell>
        <mxCell id="MrNx-WvCg45tO7X31yC5-36" value="" style="points=[];aspect=fixed;html=1;align=center;shadow=0;dashed=0;fillColor=#FF6A00;strokeColor=none;shape=mxgraph.alibaba_cloud.bastionhost;" vertex="1" parent="MrNx-WvCg45tO7X31yC5-2">
          <mxGeometry x="48.42" y="40" width="63.16" height="50" as="geometry" />
        </mxCell>
        <mxCell id="MrNx-WvCg45tO7X31yC5-40" value="" style="sketch=0;aspect=fixed;pointerEvents=1;shadow=0;dashed=0;html=1;strokeColor=none;labelPosition=center;verticalLabelPosition=bottom;verticalAlign=top;align=center;fillColor=#00188D;shape=mxgraph.mscae.enterprise.lock_unlocked" vertex="1" parent="MrNx-WvCg45tO7X31yC5-2">
          <mxGeometry x="68.19999999999999" y="20" width="29.6" height="40" as="geometry" />
        </mxCell>
        <mxCell id="MrNx-WvCg45tO7X31yC5-3" value="&lt;b&gt;Private subnet&lt;/b&gt;" style="points=[[0,0],[0.25,0],[0.5,0],[0.75,0],[1,0],[1,0.25],[1,0.5],[1,0.75],[1,1],[0.75,1],[0.5,1],[0.25,1],[0,1],[0,0.75],[0,0.5],[0,0.25]];outlineConnect=0;gradientColor=#7ea6e0;html=1;whiteSpace=wrap;fontSize=12;fontStyle=0;container=1;pointerEvents=0;collapsible=0;recursiveResize=0;shape=mxgraph.aws4.group;grIcon=mxgraph.aws4.group_security_group;grStroke=0;strokeColor=#6c8ebf;fillColor=#dae8fc;verticalAlign=top;align=left;spacingLeft=30;dashed=0;" vertex="1" parent="MrNx-WvCg45tO7X31yC5-1">
          <mxGeometry x="310" y="40" width="160" height="440" as="geometry" />
        </mxCell>
        <mxCell id="MrNx-WvCg45tO7X31yC5-22" value="&lt;b&gt;Catalogue&lt;/b&gt;" style="rounded=0;whiteSpace=wrap;html=1;" vertex="1" parent="MrNx-WvCg45tO7X31yC5-3">
          <mxGeometry x="20" y="40" width="120" height="60" as="geometry" />
        </mxCell>
        <mxCell id="MrNx-WvCg45tO7X31yC5-26" value="&lt;b&gt;User&lt;/b&gt;" style="rounded=0;whiteSpace=wrap;html=1;" vertex="1" parent="MrNx-WvCg45tO7X31yC5-3">
          <mxGeometry x="20" y="120" width="120" height="60" as="geometry" />
        </mxCell>
        <mxCell id="MrNx-WvCg45tO7X31yC5-27" value="&lt;b&gt;Cart&lt;/b&gt;" style="rounded=0;whiteSpace=wrap;html=1;" vertex="1" parent="MrNx-WvCg45tO7X31yC5-3">
          <mxGeometry x="20" y="200" width="120" height="60" as="geometry" />
        </mxCell>
        <mxCell id="MrNx-WvCg45tO7X31yC5-28" value="&lt;b&gt;Shipping&lt;/b&gt;" style="rounded=0;whiteSpace=wrap;html=1;" vertex="1" parent="MrNx-WvCg45tO7X31yC5-3">
          <mxGeometry x="20" y="280" width="120" height="60" as="geometry" />
        </mxCell>
        <mxCell id="MrNx-WvCg45tO7X31yC5-29" value="&lt;b&gt;Payment&lt;/b&gt;" style="rounded=0;whiteSpace=wrap;html=1;" vertex="1" parent="MrNx-WvCg45tO7X31yC5-3">
          <mxGeometry x="20" y="370" width="120" height="60" as="geometry" />
        </mxCell>
        <mxCell id="MrNx-WvCg45tO7X31yC5-4" value="&lt;b&gt;Database subnet&lt;/b&gt;" style="points=[[0,0],[0.25,0],[0.5,0],[0.75,0],[1,0],[1,0.25],[1,0.5],[1,0.75],[1,1],[0.75,1],[0.5,1],[0.25,1],[0,1],[0,0.75],[0,0.5],[0,0.25]];outlineConnect=0;gradientColor=#ea6b66;html=1;whiteSpace=wrap;fontSize=12;fontStyle=0;container=1;pointerEvents=0;collapsible=0;recursiveResize=0;shape=mxgraph.aws4.group;grIcon=mxgraph.aws4.group_security_group;grStroke=0;strokeColor=#b85450;fillColor=#f8cecc;verticalAlign=top;align=left;spacingLeft=30;dashed=0;" vertex="1" parent="MrNx-WvCg45tO7X31yC5-1">
          <mxGeometry x="530" y="40" width="160" height="440" as="geometry" />
        </mxCell>
        <mxCell id="MrNx-WvCg45tO7X31yC5-31" value="&lt;b&gt;MongoDB&lt;/b&gt;" style="rounded=0;whiteSpace=wrap;html=1;" vertex="1" parent="MrNx-WvCg45tO7X31yC5-4">
          <mxGeometry x="20" y="40" width="120" height="60" as="geometry" />
        </mxCell>
        <mxCell id="MrNx-WvCg45tO7X31yC5-32" value="&lt;b&gt;Redis&lt;/b&gt;" style="rounded=0;whiteSpace=wrap;html=1;" vertex="1" parent="MrNx-WvCg45tO7X31yC5-4">
          <mxGeometry x="20" y="145" width="120" height="60" as="geometry" />
        </mxCell>
        <mxCell id="MrNx-WvCg45tO7X31yC5-33" value="&lt;b&gt;MySQL&lt;/b&gt;" style="rounded=0;whiteSpace=wrap;html=1;" vertex="1" parent="MrNx-WvCg45tO7X31yC5-4">
          <mxGeometry x="20" y="240" width="120" height="60" as="geometry" />
        </mxCell>
        <mxCell id="MrNx-WvCg45tO7X31yC5-34" value="&lt;b&gt;MySQL&lt;/b&gt;" style="rounded=0;whiteSpace=wrap;html=1;" vertex="1" parent="MrNx-WvCg45tO7X31yC5-4">
          <mxGeometry x="20" y="340" width="120" height="60" as="geometry" />
        </mxCell>
        <mxCell id="MrNx-WvCg45tO7X31yC5-5" value="" style="outlineConnect=0;dashed=0;verticalLabelPosition=bottom;verticalAlign=top;align=center;html=1;shape=mxgraph.aws3.application_load_balancer;fillColor=#F58534;gradientColor=none;" vertex="1" parent="MrNx-WvCg45tO7X31yC5-1">
          <mxGeometry x="11" y="220" width="59" height="50" as="geometry" />
        </mxCell>
        <mxCell id="MrNx-WvCg45tO7X31yC5-6" value="" style="sketch=0;aspect=fixed;pointerEvents=1;shadow=0;dashed=0;html=1;strokeColor=none;labelPosition=center;verticalLabelPosition=bottom;verticalAlign=top;align=center;fillColor=#00188D;shape=mxgraph.mscae.enterprise.lock_unlocked" vertex="1" parent="MrNx-WvCg45tO7X31yC5-1">
          <mxGeometry x="25.7" y="180" width="29.6" height="40" as="geometry" />
        </mxCell>
        <mxCell id="MrNx-WvCg45tO7X31yC5-17" style="edgeStyle=orthogonalEdgeStyle;rounded=0;orthogonalLoop=1;jettySize=auto;html=1;entryX=0;entryY=0.5;entryDx=0;entryDy=0;entryPerimeter=0;" edge="1" parent="MrNx-WvCg45tO7X31yC5-1" source="MrNx-WvCg45tO7X31yC5-5" target="MrNx-WvCg45tO7X31yC5-12">
          <mxGeometry relative="1" as="geometry" />
        </mxCell>
        <mxCell id="MrNx-WvCg45tO7X31yC5-18" style="edgeStyle=orthogonalEdgeStyle;rounded=0;orthogonalLoop=1;jettySize=auto;html=1;entryX=0;entryY=0.5;entryDx=0;entryDy=0;entryPerimeter=0;" edge="1" parent="MrNx-WvCg45tO7X31yC5-1" source="MrNx-WvCg45tO7X31yC5-5" target="MrNx-WvCg45tO7X31yC5-13">
          <mxGeometry relative="1" as="geometry" />
        </mxCell>
        <mxCell id="MrNx-WvCg45tO7X31yC5-25" style="edgeStyle=orthogonalEdgeStyle;rounded=0;orthogonalLoop=1;jettySize=auto;html=1;entryX=0;entryY=0.5;entryDx=0;entryDy=0;" edge="1" parent="MrNx-WvCg45tO7X31yC5-1" source="MrNx-WvCg45tO7X31yC5-21" target="MrNx-WvCg45tO7X31yC5-22">
          <mxGeometry relative="1" as="geometry">
            <Array as="points">
              <mxPoint x="310" y="245" />
              <mxPoint x="310" y="110" />
            </Array>
          </mxGeometry>
        </mxCell>
        <mxCell id="MrNx-WvCg45tO7X31yC5-21" value="" style="outlineConnect=0;dashed=0;verticalLabelPosition=bottom;verticalAlign=top;align=center;html=1;shape=mxgraph.aws3.application_load_balancer;fillColor=#F58534;gradientColor=none;" vertex="1" parent="MrNx-WvCg45tO7X31yC5-1">
          <mxGeometry x="251" y="220" width="59" height="50" as="geometry" />
        </mxCell>
        <mxCell id="MrNx-WvCg45tO7X31yC5-23" style="edgeStyle=orthogonalEdgeStyle;rounded=0;orthogonalLoop=1;jettySize=auto;html=1;entryX=0;entryY=0.5;entryDx=0;entryDy=0;entryPerimeter=0;" edge="1" parent="MrNx-WvCg45tO7X31yC5-1" source="MrNx-WvCg45tO7X31yC5-12" target="MrNx-WvCg45tO7X31yC5-21">
          <mxGeometry relative="1" as="geometry" />
        </mxCell>
        <mxCell id="MrNx-WvCg45tO7X31yC5-24" style="edgeStyle=orthogonalEdgeStyle;rounded=0;orthogonalLoop=1;jettySize=auto;html=1;" edge="1" parent="MrNx-WvCg45tO7X31yC5-1" source="MrNx-WvCg45tO7X31yC5-13" target="MrNx-WvCg45tO7X31yC5-21">
          <mxGeometry relative="1" as="geometry" />
        </mxCell>
        <mxCell id="MrNx-WvCg45tO7X31yC5-37" style="edgeStyle=orthogonalEdgeStyle;rounded=0;orthogonalLoop=1;jettySize=auto;html=1;entryX=0.5;entryY=0;entryDx=0;entryDy=0;entryPerimeter=0;" edge="1" parent="MrNx-WvCg45tO7X31yC5-1" source="MrNx-WvCg45tO7X31yC5-36" target="MrNx-WvCg45tO7X31yC5-21">
          <mxGeometry relative="1" as="geometry" />
        </mxCell>
        <mxCell id="MrNx-WvCg45tO7X31yC5-41" value="" style="sketch=0;aspect=fixed;pointerEvents=1;shadow=0;dashed=0;html=1;strokeColor=none;labelPosition=center;verticalLabelPosition=bottom;verticalAlign=top;align=center;fillColor=#00188D;shape=mxgraph.mscae.enterprise.lock_unlocked" vertex="1" parent="MrNx-WvCg45tO7X31yC5-1">
          <mxGeometry x="265.7" y="260" width="29.6" height="40" as="geometry" />
        </mxCell>
        <mxCell id="MrNx-WvCg45tO7X31yC5-20" style="edgeStyle=orthogonalEdgeStyle;rounded=0;orthogonalLoop=1;jettySize=auto;html=1;flowAnimation=1;" edge="1" parent="1" source="MrNx-WvCg45tO7X31yC5-19" target="MrNx-WvCg45tO7X31yC5-5">
          <mxGeometry relative="1" as="geometry" />
        </mxCell>
        <mxCell id="MrNx-WvCg45tO7X31yC5-19" value="" style="verticalLabelPosition=bottom;shadow=0;dashed=0;align=center;html=1;verticalAlign=top;strokeWidth=1;shape=mxgraph.mockup.containers.userMale;strokeColor=#666666;strokeColor2=#008cff;" vertex="1" parent="1">
          <mxGeometry x="-100" y="235" width="100" height="100" as="geometry" />
        </mxCell>
        <mxCell id="MrNx-WvCg45tO7X31yC5-38" value="" style="sketch=0;pointerEvents=1;shadow=0;dashed=0;html=1;strokeColor=none;fillColor=#505050;labelPosition=center;verticalLabelPosition=bottom;verticalAlign=top;outlineConnect=0;align=center;shape=mxgraph.office.users.um_enabled_user;" vertex="1" parent="1">
          <mxGeometry x="20" y="111" width="58" height="59" as="geometry" />
        </mxCell>
        <mxCell id="MrNx-WvCg45tO7X31yC5-39" style="edgeStyle=orthogonalEdgeStyle;rounded=0;orthogonalLoop=1;jettySize=auto;html=1;entryX=0.183;entryY=0.41;entryDx=0;entryDy=0;entryPerimeter=0;" edge="1" parent="1" source="MrNx-WvCg45tO7X31yC5-38" target="MrNx-WvCg45tO7X31yC5-36">
          <mxGeometry relative="1" as="geometry" />
        </mxCell>
      </root>
    </mxGraphModel>
  </diagram>
</mxfile>
